<svg width="32" height="32" viewBox="0 0 32 32" fill="none" xmlns="http://www.w3.org/2000/svg">
<g clip-path="url(#clip0_20804_357989)">
<path fill-rule="evenodd" clip-rule="evenodd" d="M1.36719 27.1211C1.94623 27.0535 5.66383 26.5043 5.66383 25.6212C5.66383 25.5114 5.60509 25.4015 5.4918 25.2959C7.2499 26.4789 8.06391 27.1972 9.22619 28.9759C9.38563 29.221 9.44857 29.4787 9.37305 29.7195C9.3143 29.9139 9.16744 30.0956 8.91149 30.2477C7.49746 31.0927 5.74356 31.6251 4.1449 32.0011C3.93091 31.0378 3.85119 30.0871 3.94769 29.1534C2.8022 28.7013 1.99658 28.0506 1.36719 27.1211Z" fill="url(#paint0_radial_20804_357989)"/>
<path fill-rule="evenodd" clip-rule="evenodd" d="M5.66327 25.6212C5.66327 26.1874 4.14854 26.6141 2.90234 26.8676C3.4688 27.569 4.19889 28.2661 5.05067 28.9041C6.12483 29.7026 7.23675 30.2857 8.24378 30.611C8.47456 30.497 8.69694 30.3744 8.91093 30.2477C9.16689 30.0956 9.31374 29.9139 9.37249 29.7195C9.44802 29.4787 9.38508 29.2168 9.22563 28.9717C8.06335 27.1972 7.24934 26.4747 5.49124 25.2959C5.60453 25.4015 5.66327 25.5114 5.66327 25.6212Z" fill="url(#paint1_linear_20804_357989)"/>
<path fill-rule="evenodd" clip-rule="evenodd" d="M8.69863 28.9752C8.47205 29.8582 5.25796 30.7286 3.97819 31.037C3.99917 31.1975 4.02435 31.3581 4.04953 31.5229C5.20341 31.2482 8.76996 30.2892 9.0343 29.3512C9.10144 29.123 9.0385 28.8738 8.88325 28.6456L8.54338 28.3118C8.69863 28.5231 8.76157 28.7555 8.69863 28.9752ZM2.08163 27.9738C3.08865 27.809 6.29016 27.2006 6.34051 26.3641C6.3531 26.2289 6.29435 26.0937 6.17267 25.9627L5.8328 25.6289C5.95029 25.7472 6.00903 25.8697 6.00064 25.9923C5.97546 26.8584 2.48024 27.4415 1.69141 27.5555C1.81728 27.7034 1.94316 27.8428 2.08163 27.9738Z" fill="url(#paint2_radial_20804_357989)"/>
<path fill-rule="evenodd" clip-rule="evenodd" d="M7.25507 29.0764C7.7418 29.4102 9.52088 28.8144 9.37402 29.7186C9.44955 29.4778 9.38661 29.2158 9.22716 28.975C8.06489 27.2005 6.55435 25.671 4.80044 24.4922C4.91373 24.5978 4.97248 24.7077 4.97248 24.8175C4.97248 25.1851 4.36826 25.4724 3.61719 25.6921C4.641 27.0019 5.87041 28.1469 7.25507 29.0764Z" fill="#551400"/>
<path fill-rule="evenodd" clip-rule="evenodd" d="M30.6314 27.1211C30.0524 27.0535 26.3348 26.5043 26.3348 25.6212C26.3348 25.5114 26.3935 25.4015 26.5068 25.2959C24.7487 26.4789 23.9347 27.1972 22.7724 28.9759C22.613 29.221 22.55 29.4787 22.6256 29.7195C22.6843 29.9139 22.8312 30.0956 23.0871 30.2477C24.5011 31.0927 26.255 31.6251 27.8537 32.0011C28.0677 31.0378 28.1474 30.0871 28.0509 29.1534C29.1964 28.7013 30.002 28.0506 30.6314 27.1211Z" fill="url(#paint3_radial_20804_357989)"/>
<path fill-rule="evenodd" clip-rule="evenodd" d="M26.3348 25.6212C26.3348 26.1874 27.8495 26.6141 29.0957 26.8676C28.5293 27.569 27.7992 28.2661 26.9474 28.9041C25.8732 29.7026 24.7613 30.2857 23.7543 30.611C23.5235 30.497 23.3011 30.3744 23.0871 30.2477C22.8312 30.0956 22.6843 29.9139 22.6256 29.7195C22.55 29.4787 22.613 29.2168 22.7724 28.9717C23.9347 27.1972 24.7487 26.4747 26.5068 25.2959C26.3935 25.4015 26.3348 25.5114 26.3348 25.6212Z" fill="url(#paint4_radial_20804_357989)"/>
<path fill-rule="evenodd" clip-rule="evenodd" d="M23.2999 28.9752C23.5264 29.8582 26.7405 30.7286 28.0203 31.037C27.9993 31.1975 27.9741 31.3581 27.949 31.5229C26.7951 31.2482 23.2285 30.2892 22.9642 29.3512C22.897 29.123 22.96 28.8738 23.1152 28.6456L23.4551 28.3118C23.2999 28.5231 23.2369 28.7555 23.2999 28.9752ZM29.9168 27.9738C28.9098 27.809 25.7083 27.2006 25.658 26.3641C25.6454 26.2289 25.7041 26.0937 25.8258 25.9627L26.1657 25.6289C26.0482 25.7472 25.9894 25.8697 25.9978 25.9923C26.023 26.8584 29.5182 27.4415 30.3071 27.5555C30.1812 27.7034 30.0553 27.8428 29.9168 27.9738Z" fill="url(#paint5_radial_20804_357989)"/>
<path fill-rule="evenodd" clip-rule="evenodd" d="M24.7445 29.0764C24.2578 29.4102 22.4787 28.8144 22.6256 29.7186C22.55 29.4778 22.613 29.2158 22.7724 28.975C23.9347 27.2005 25.4452 25.671 27.1991 24.4922C27.0858 24.5978 27.0271 24.7077 27.0271 24.8175C27.0271 25.1851 27.6313 25.4724 28.3824 25.6921C27.3586 27.0019 26.1292 28.1469 24.7445 29.0764Z" fill="#551400"/>
<path fill-rule="evenodd" clip-rule="evenodd" d="M16.0003 3.71387C22.6766 3.71387 28.0864 9.1613 28.0864 15.884C28.0864 22.6066 22.6766 28.0541 16.0003 28.0541C9.32394 28.0541 3.91406 22.6066 3.91406 15.884C3.91406 9.1613 9.32394 3.71387 16.0003 3.71387Z" fill="url(#paint6_linear_20804_357989)"/>
<path fill-rule="evenodd" clip-rule="evenodd" d="M15.9992 23.581C21.7165 23.581 26.3509 18.9144 26.3509 13.1574C26.3509 11.6882 26.0481 10.2882 25.5066 9.0222C26.9107 10.972 27.7367 13.3654 27.7367 15.9574C27.7367 22.486 22.4828 27.7763 15.9992 27.7763C9.51559 27.7763 4.26172 22.4814 4.26172 15.9528C4.26172 13.3607 5.08765 10.9628 6.49175 9.01758C5.94571 10.2836 5.64746 11.6835 5.64746 13.1528C5.64746 18.9098 10.2819 23.581 15.9992 23.581Z" fill="url(#paint7_radial_20804_357989)"/>
<path fill-rule="evenodd" clip-rule="evenodd" d="M16.0015 4.22246C22.3979 4.22246 27.5829 9.44349 27.5829 15.8843C27.5829 22.3251 22.3979 27.5462 16.0015 27.5462C9.60508 27.5462 4.42004 22.3251 4.42004 15.8843C4.42004 9.44349 9.60508 4.22246 16.0015 4.22246ZM29.2256 15.8843C29.2256 8.52865 23.3064 2.56836 16.0015 2.56836C8.69655 2.56836 2.77734 8.52865 2.77734 15.8843C2.77734 23.24 8.69655 29.2003 16.0015 29.2003C23.3064 29.2003 29.2256 23.2353 29.2256 15.8843Z" fill="url(#paint8_linear_20804_357989)"/>
<path fill-rule="evenodd" clip-rule="evenodd" d="M15.9997 29.2001C23.3046 29.2001 29.2238 23.2398 29.2238 15.8841C29.2238 8.52845 23.3046 2.56816 15.9997 2.56816C8.69472 2.56816 2.77551 8.52845 2.77551 15.8841C2.77551 23.2351 8.69472 29.2001 15.9997 29.2001ZM30.8665 15.8841C30.8665 24.15 24.2085 30.8542 15.9997 30.8542C7.79077 30.8542 1.13281 24.15 1.13281 15.8841C1.13281 7.61824 7.79077 0.914062 15.9997 0.914062C24.2085 0.914062 30.8665 7.61362 30.8665 15.8841Z" fill="url(#paint9_linear_20804_357989)"/>
<path fill-rule="evenodd" clip-rule="evenodd" d="M16.0009 29.2005C12.4631 29.2005 9.25577 27.8052 6.87891 25.5273C9.22823 27.9253 12.4448 29.4038 16.0009 29.4038C17.4601 29.4038 18.8687 29.1543 20.1765 28.6923C20.5573 28.5398 20.9336 28.3827 21.3144 28.2303C22.7369 27.5696 24.0217 26.6501 25.1183 25.532C22.746 27.8006 19.5387 29.2005 16.0009 29.2005Z" fill="#FFD8D2"/>
<path fill-rule="evenodd" clip-rule="evenodd" d="M16.0015 27.5456C9.60508 27.5456 4.42004 22.3246 4.42004 15.8838C4.17685 15.9208 3.89695 15.9439 3.59869 15.9439C3.30044 15.9439 3.02054 15.9208 2.77734 15.8838C2.77734 23.2394 8.69655 29.1997 16.0015 29.1997C23.3064 29.1997 29.2256 23.2394 29.2256 15.8838C28.9824 15.9208 28.7025 15.9439 28.4043 15.9439C28.106 15.9439 27.8261 15.9208 27.5829 15.8838C27.5829 22.3246 22.3979 27.5456 16.0015 27.5456Z" fill="url(#paint10_linear_20804_357989)"/>
<path fill-rule="evenodd" clip-rule="evenodd" d="M2.77551 15.8841C2.77551 8.52846 8.69472 2.56816 15.9997 2.56816C23.3046 2.56816 29.2238 8.52846 29.2238 15.8841C29.467 15.8471 29.7469 15.824 30.0452 15.824C30.3434 15.824 30.6233 15.8471 30.8665 15.8841C30.8665 7.61824 24.2085 0.914062 15.9997 0.914062C7.79077 0.914062 1.13281 7.61824 1.13281 15.8841C1.376 15.8471 1.65591 15.824 1.95416 15.824C2.25241 15.824 2.53231 15.8471 2.77551 15.8841Z" fill="url(#paint11_linear_20804_357989)"/>
<path fill-rule="evenodd" clip-rule="evenodd" d="M16.0009 2.56951C19.5387 2.56951 22.746 3.96486 25.1229 6.24271C22.7736 3.84473 19.557 2.36621 16.0009 2.36621C14.3307 2.36621 12.7339 2.69426 11.2655 3.29029C11.2655 3.29029 10.9352 3.39656 10.4442 3.63682C9.93947 3.8817 9.42095 4.21899 9.42095 4.21899C9.17776 4.36684 8.93457 4.52855 8.70055 4.69026C8.48489 4.85198 7.90674 5.29553 7.90674 5.29553C7.54883 5.59124 7.20469 5.90542 6.87891 6.23809C9.25577 3.96486 12.4677 2.56951 16.0009 2.56951Z" fill="#FFE2DC"/>
<path fill-rule="evenodd" clip-rule="evenodd" d="M15.9994 27.5456C9.60301 27.5456 4.41797 22.3246 4.41797 15.8838C4.41797 22.6064 9.60301 28.0539 15.9994 28.0539C22.3958 28.0539 27.5809 22.6064 27.5809 15.8838C27.5809 22.3246 22.3958 27.5456 15.9994 27.5456Z" fill="url(#paint12_radial_20804_357989)"/>
<path fill-rule="evenodd" clip-rule="evenodd" d="M15.9998 4.84153C21.2858 4.84153 25.7459 8.18668 27.1637 12.7655C25.8101 7.83553 21.3225 4.21777 15.9998 4.21777C10.6771 4.21777 6.18955 7.83553 4.83594 12.7655C6.25379 8.18668 10.7138 4.84153 15.9998 4.84153Z" fill="url(#paint13_radial_20804_357989)"/>
<path fill-rule="evenodd" clip-rule="evenodd" d="M15.9995 18.8686C20.8128 18.8686 24.7177 15.8514 24.7177 12.132C24.7177 8.41262 20.8128 5.39551 15.9995 5.39551C11.1861 5.39551 7.28125 8.41262 7.28125 12.132C7.28125 15.8514 11.1861 18.8686 15.9995 18.8686Z" fill="url(#paint14_radial_20804_357989)"/>
<path fill-rule="evenodd" clip-rule="evenodd" d="M15.9998 10.8014C19.0466 10.8014 21.5152 9.64631 21.5152 8.22785C21.5152 6.80939 19.0466 5.6543 15.9998 5.6543C12.953 5.6543 10.4844 6.80939 10.4844 8.22785C10.4844 9.64631 12.953 10.8014 15.9998 10.8014Z" fill="url(#paint15_radial_20804_357989)"/>
<path d="M18.1522 21.667C15.899 21.667 13.403 21.5355 10.6641 21.2726V18.6107C13.6458 18.8078 15.872 18.9064 17.3426 18.9064C17.653 18.9064 17.8958 18.821 18.0712 18.6501C18.2601 18.4661 18.3545 18.2229 18.3545 17.9205V17.1318C18.3545 16.343 17.9498 15.9487 17.1403 15.9487H12.8903V13.1881H16.7355C17.545 13.1881 17.9498 12.7938 17.9498 12.005V11.6107C17.9498 10.8219 17.545 10.4276 16.7355 10.4276H10.8664V7.66699H17.7474C19.0696 7.66699 20.041 7.96277 20.6617 8.55432C21.2823 9.13272 21.5926 10.02 21.5926 11.2163C21.5926 12.005 21.4037 12.6492 21.026 13.1487C20.6617 13.6351 20.176 13.9769 19.5688 14.174C20.6617 14.4632 21.4037 15.1731 21.795 16.3036C21.9299 16.7111 21.9974 17.1844 21.9974 17.7233V17.9205C21.9974 19.2088 21.6871 20.1553 21.0664 20.7599C20.4458 21.3646 19.4744 21.667 18.1522 21.667Z" fill="#CF402D"/>
<path d="M18.1522 21C15.899 21 13.403 20.8685 10.6641 20.6056V17.9437C13.6458 18.1408 15.872 18.2394 17.3426 18.2394C17.653 18.2394 17.8958 18.154 18.0712 17.9831C18.2601 17.7991 18.3545 17.5559 18.3545 17.2535V16.4648C18.3545 15.6761 17.9498 15.2817 17.1403 15.2817H12.8903V12.5211H16.7355C17.545 12.5211 17.9498 12.1268 17.9498 11.338V10.9437C17.9498 10.1549 17.545 9.76056 16.7355 9.76056H10.8664V7H17.7474C19.0696 7 20.041 7.29577 20.6617 7.88732C21.2823 8.46573 21.5926 9.35305 21.5926 10.5493C21.5926 11.338 21.4037 11.9822 21.026 12.4817C20.6617 12.9681 20.176 13.3099 19.5688 13.507C20.6617 13.7962 21.4037 14.5061 21.795 15.6366C21.9299 16.0441 21.9974 16.5174 21.9974 17.0563V17.2535C21.9974 18.5418 21.6871 19.4883 21.0664 20.093C20.4458 20.6977 19.4744 21 18.1522 21Z" fill="white"/>
<path d="M18.1522 21.333C15.899 21.333 13.403 21.2016 10.6641 20.9386V18.2767C13.6458 18.4739 15.872 18.5724 17.3426 18.5724C17.653 18.5724 17.8958 18.487 18.0712 18.3161C18.2601 18.1321 18.3545 17.8889 18.3545 17.5865V16.7978C18.3545 16.0091 17.9498 15.6147 17.1403 15.6147H12.8903V12.8541H16.7355C17.545 12.8541 17.9498 12.4598 17.9498 11.671V11.2767C17.9498 10.4879 17.545 10.0936 16.7355 10.0936H10.8664V7.33301H17.7474C19.0696 7.33301 20.041 7.62878 20.6617 8.22033C21.2823 8.79874 21.5926 9.68606 21.5926 10.8823C21.5926 11.671 21.4037 12.3152 21.026 12.8147C20.6617 13.3011 20.176 13.6429 19.5688 13.84C20.6617 14.1293 21.4037 14.8391 21.795 15.9696C21.9299 16.3771 21.9974 16.8504 21.9974 17.3893V17.5865C21.9974 18.8748 21.6871 19.8213 21.0664 20.426C20.4458 21.0307 19.4744 21.333 18.1522 21.333Z" fill="#FFD2C4"/>
<path fill-rule="evenodd" clip-rule="evenodd" d="M15.999 20.667C21.2649 20.667 25.935 21.7106 28.8554 23.3161C29.0819 23.4386 29.2288 23.633 29.2875 23.8823C29.3505 24.1316 29.3085 24.3724 29.1659 24.5879C28.0036 26.3624 26.493 27.8919 24.7391 29.0707C25.3392 28.6608 24.9825 28.044 24.5126 27.7313C23.2454 26.8863 19.9096 26.2863 15.999 26.2863C15.8941 24.3513 15.8983 22.4795 15.999 20.667Z" fill="url(#paint16_radial_20804_357989)"/>
<path fill-rule="evenodd" clip-rule="evenodd" d="M16.0006 20.667C10.7347 20.667 6.06459 21.7106 3.14421 23.3161C2.91763 23.4386 2.77077 23.633 2.71203 23.8823C2.64909 24.1316 2.69105 24.3724 2.83371 24.5879C3.99599 26.3624 5.50653 27.8919 7.26043 29.0707C6.66041 28.6608 7.01707 28.044 7.48701 27.7313C8.75419 26.8863 12.09 26.2863 16.0006 26.2863C16.1055 24.3513 16.1013 22.4795 16.0006 20.667Z" fill="url(#paint17_radial_20804_357989)"/>
<path fill-rule="evenodd" clip-rule="evenodd" d="M6.69606 26.9336C6.25129 27.2209 5.86946 27.8039 6.29325 28.3743C6.39395 28.4546 6.49465 28.5307 6.59535 28.6067C6.3436 28.0912 6.69186 27.5969 7.09048 27.335C8.50871 26.4223 11.962 25.7801 15.9985 25.7801V25.2689C11.8445 25.2689 8.26534 25.9534 6.69606 26.9336ZM3.31832 25.2942C3.20923 24.8295 3.52812 24.3521 3.93513 24.1197C6.5534 22.6494 10.9843 21.686 16.0027 21.686V21.1748C10.8584 21.1748 6.31003 22.1761 3.54071 23.7183C3.18825 23.9169 2.90712 24.2929 2.89453 24.6858C3.033 24.8929 3.17566 25.0957 3.31832 25.2942Z" fill="url(#paint18_radial_20804_357989)"/>
<path opacity="0.75" fill-rule="evenodd" clip-rule="evenodd" d="M15.9986 21.1074C11.3915 21.1074 7.25847 21.9355 4.47656 23.2495C7.27526 21.982 11.3999 21.1792 15.9986 21.1792V21.1074ZM7.68226 26.4521C9.52009 25.7339 12.5579 25.2691 15.9986 25.2691V25.2184C12.5412 25.2184 9.49072 25.7043 7.68226 26.4521Z" fill="white"/>
<path fill-rule="evenodd" clip-rule="evenodd" d="M7.53265 27.7068C5.99693 26.3295 4.49898 24.5845 3.63042 23.0635C3.46258 23.148 3.30314 23.2325 3.14789 23.317C3.00522 23.3973 2.89193 23.5029 2.81641 23.6339C2.83739 23.7015 2.86256 23.7648 2.90033 23.8282C3.53811 24.9225 5.62349 27.3139 7.02494 28.2434C7.12144 28.0491 7.29767 27.8674 7.49069 27.7364C7.49908 27.728 7.51586 27.7195 7.53265 27.7068Z" fill="url(#paint19_linear_20804_357989)"/>
<path fill-rule="evenodd" clip-rule="evenodd" d="M25.3066 26.9336C25.7514 27.2209 26.1332 27.8039 25.7094 28.3743C25.6087 28.4546 25.508 28.5307 25.4073 28.6067C25.6591 28.0912 25.3108 27.5969 24.9122 27.335C23.494 26.4223 20.0407 25.7801 16.0042 25.7801V25.2689C20.1582 25.2689 23.7373 25.9534 25.3066 26.9336ZM28.6843 25.2942C28.7934 24.8295 28.4745 24.3521 28.0675 24.1197C25.4493 22.6494 21.0183 21.686 16 21.686V21.1748C21.1442 21.1748 25.6926 22.1761 28.462 23.7183C28.8144 23.9169 29.0955 24.2929 29.1081 24.6858C28.9697 24.8929 28.8312 25.0957 28.6843 25.2942Z" fill="url(#paint20_radial_20804_357989)"/>
<path opacity="0.75" fill-rule="evenodd" clip-rule="evenodd" d="M16 21.1074C20.6071 21.1074 24.7401 21.9355 27.5221 23.2495C24.7234 21.982 20.5988 21.1792 16 21.1792V21.1074V21.1074ZM24.3164 26.4521C22.4785 25.7339 19.4407 25.2691 16 25.2691V25.2184C19.4575 25.2184 22.5079 25.7043 24.3164 26.4521Z" fill="white"/>
<path fill-rule="evenodd" clip-rule="evenodd" d="M24.4727 27.7068C26.0084 26.3295 27.5063 24.5845 28.3749 23.0635C28.5427 23.148 28.7022 23.2325 28.8574 23.317C29.0001 23.3973 29.1134 23.5029 29.1889 23.6339C29.1679 23.7015 29.1427 23.7648 29.105 23.8282C28.4672 24.9225 26.3818 27.3139 24.9804 28.2434C24.8839 28.0491 24.7076 27.8674 24.5146 27.7364C24.502 27.728 24.4852 27.7195 24.4727 27.7068Z" fill="url(#paint21_linear_20804_357989)"/>
</g>
<defs>
<radialGradient id="paint0_radial_20804_357989" cx="0" cy="0" r="1" gradientUnits="userSpaceOnUse" gradientTransform="translate(10.7056 25.1145) scale(9.54015 9.60637)">
<stop stop-color="#B52C01"/>
<stop offset="1" stop-color="#E64522"/>
</radialGradient>
<linearGradient id="paint1_linear_20804_357989" x1="8.39907" y1="26.1195" x2="4.81615" y2="28.6311" gradientUnits="userSpaceOnUse">
<stop stop-color="#3F1002"/>
<stop offset="1" stop-color="#B72300"/>
</linearGradient>
<radialGradient id="paint2_radial_20804_357989" cx="0" cy="0" r="1" gradientUnits="userSpaceOnUse" gradientTransform="translate(7.98943 26.5084) scale(6.35551 6.39962)">
<stop stop-color="#FFBD81"/>
<stop offset="1" stop-color="#FFC289"/>
</radialGradient>
<radialGradient id="paint3_radial_20804_357989" cx="0" cy="0" r="1" gradientUnits="userSpaceOnUse" gradientTransform="translate(21.2932 25.1145) rotate(180) scale(9.54015 9.60637)">
<stop stop-color="#DB3F1B"/>
<stop offset="1" stop-color="#DE411D"/>
</radialGradient>
<radialGradient id="paint4_radial_20804_357989" cx="0" cy="0" r="1" gradientUnits="userSpaceOnUse" gradientTransform="translate(19.4311 18.6855) rotate(180) scale(12.7817 12.8704)">
<stop stop-color="#A22000"/>
<stop offset="1" stop-color="#AF2200"/>
</radialGradient>
<radialGradient id="paint5_radial_20804_357989" cx="0" cy="0" r="1" gradientUnits="userSpaceOnUse" gradientTransform="translate(24.0092 26.5084) rotate(180) scale(6.35551 6.39962)">
<stop stop-color="#FFBD81"/>
<stop offset="1" stop-color="#FFC289"/>
</radialGradient>
<linearGradient id="paint6_linear_20804_357989" x1="16.1792" y1="23.041" x2="15.9979" y2="3.712" gradientUnits="userSpaceOnUse">
<stop stop-color="#E7633A"/>
<stop offset="1" stop-color="#E77636"/>
</linearGradient>
<radialGradient id="paint7_radial_20804_357989" cx="0" cy="0" r="1" gradientUnits="userSpaceOnUse" gradientTransform="translate(16.0836 13.3903) scale(22.8311 22.9896)">
<stop stop-color="#D0342A"/>
<stop offset="1" stop-color="#DB6D2F"/>
</radialGradient>
<linearGradient id="paint8_linear_20804_357989" x1="16.0016" y1="29.1994" x2="16.0016" y2="2.5673" gradientUnits="userSpaceOnUse">
<stop stop-color="#E9805D"/>
<stop offset="1" stop-color="#BD3D2B"/>
</linearGradient>
<linearGradient id="paint9_linear_20804_357989" x1="15.9998" y1="29.1992" x2="15.9998" y2="2.5671" gradientUnits="userSpaceOnUse">
<stop stop-color="#B52B00"/>
<stop offset="1" stop-color="#DE6D67"/>
</linearGradient>
<linearGradient id="paint10_linear_20804_357989" x1="16.0016" y1="29.1989" x2="16.0016" y2="15.8829" gradientUnits="userSpaceOnUse">
<stop stop-color="#FBAE83"/>
<stop offset="1" stop-color="#D8583C"/>
</linearGradient>
<linearGradient id="paint11_linear_20804_357989" x1="15.9998" y1="15.8832" x2="15.9998" y2="0.913231" gradientUnits="userSpaceOnUse">
<stop stop-color="#D45353"/>
<stop offset="1" stop-color="#FDC4AC"/>
</linearGradient>
<radialGradient id="paint12_radial_20804_357989" cx="0" cy="0" r="1" gradientUnits="userSpaceOnUse" gradientTransform="translate(15.9996 27.5553) scale(13.8757 13.972)">
<stop stop-color="#FFD0CD"/>
<stop offset="1" stop-color="white"/>
</radialGradient>
<radialGradient id="paint13_radial_20804_357989" cx="0" cy="0" r="1" gradientUnits="userSpaceOnUse" gradientTransform="translate(15.9999 8.49398) scale(12.5505 12.6376)">
<stop stop-color="#FFABA6"/>
<stop offset="1" stop-color="#FF776F"/>
</radialGradient>
<radialGradient id="paint14_radial_20804_357989" cx="0" cy="0" r="1" gradientUnits="userSpaceOnUse" gradientTransform="translate(16.1785 5.48394) rotate(90) scale(13.3991 13.3067)">
<stop stop-color="#E93838"/>
<stop offset="0.00185874" stop-color="#FF968F"/>
<stop offset="1" stop-color="#EA793A"/>
</radialGradient>
<radialGradient id="paint15_radial_20804_357989" cx="0" cy="0" r="1" gradientUnits="userSpaceOnUse" gradientTransform="translate(16.1788 5.48374) rotate(91.3677) scale(7.51905 7.46722)">
<stop stop-color="#FFD3C9"/>
<stop offset="0.973958" stop-color="#F4795E"/>
</radialGradient>
<radialGradient id="paint16_radial_20804_357989" cx="0" cy="0" r="1" gradientUnits="userSpaceOnUse" gradientTransform="translate(0.664111 1.75734) rotate(180) scale(36.6845 36.9392)">
<stop offset="0.7714" stop-color="#E74724"/>
<stop offset="1" stop-color="#FB7B56"/>
</radialGradient>
<radialGradient id="paint17_radial_20804_357989" cx="0" cy="0" r="1" gradientUnits="userSpaceOnUse" gradientTransform="translate(3 24.3337) rotate(-2.93567) scale(13.0171 13.1075)">
<stop stop-color="#FF8863"/>
<stop offset="1" stop-color="#E64521"/>
</radialGradient>
<radialGradient id="paint18_radial_20804_357989" cx="0" cy="0" r="1" gradientUnits="userSpaceOnUse" gradientTransform="translate(29.4353 3.94049) scale(33.6546 33.8882)">
<stop stop-color="#FFBD80"/>
<stop offset="1" stop-color="#FFBD80"/>
</radialGradient>
<linearGradient id="paint19_linear_20804_357989" x1="2.99935" y1="23.3343" x2="7.33268" y2="28.001" gradientUnits="userSpaceOnUse">
<stop stop-color="#FF9B46"/>
<stop offset="0.00185874" stop-color="#FFD3AD"/>
<stop offset="1" stop-color="#FF9C48"/>
</linearGradient>
<radialGradient id="paint20_radial_20804_357989" cx="0" cy="0" r="1" gradientUnits="userSpaceOnUse" gradientTransform="translate(2.56757 3.94049) rotate(180) scale(33.6546 33.8882)">
<stop stop-color="#FFB26A"/>
<stop offset="1" stop-color="#FFC38B"/>
</radialGradient>
<linearGradient id="paint21_linear_20804_357989" x1="24.667" y1="28.3343" x2="29.0003" y2="23.3343" gradientUnits="userSpaceOnUse">
<stop stop-color="#FF943B"/>
<stop offset="1" stop-color="#FFD4B0"/>
</linearGradient>
<clipPath id="clip0_20804_357989">
<rect width="32" height="32" fill="white"/>
</clipPath>
</defs>
</svg>
