<svg width="24" height="24" viewBox="0 0 24 24" fill="none" xmlns="http://www.w3.org/2000/svg">
<g clip-path="url(#clip0_20897_355232)">
<path d="M22.1016 19.2738C22.1016 19.5172 21.9389 19.7606 21.6343 19.9879C20.7748 20.6249 18.7928 21.1564 16.2143 21.4647C15.1795 21.5905 14.0571 21.6757 12.8596 21.7203C12.3756 21.7366 11.8749 21.7487 11.3617 21.7487H10.8777C7.3436 21.7244 4.25597 21.3187 2.40757 20.706C1.26849 20.3246 0.605068 19.8661 0.605068 19.3671L0.588379 14.9405L1.33942 14.9365H1.56056L3.11272 14.9324L4.30187 14.9283L13.8067 14.8878H14.6746L18.046 14.8715L19.836 14.8675L21.1002 14.8634H21.3214L21.58 14.8594H22.0766L22.0807 15.4274L22.1016 19.2738Z" fill="url(#paint0_linear_20897_355232)"/>
<path d="M21.6344 19.9815C20.7749 20.6225 18.7971 21.154 16.2102 21.4583L15.9307 15.6442L19.8528 14.8489L21.5718 14.5L21.576 14.8408L21.6344 19.9815Z" fill="url(#paint1_linear_20897_355232)"/>
<path opacity="0.65" d="M12.8596 21.7209C12.3756 21.7371 11.8749 21.7493 11.3617 21.7493H10.8777C7.34361 21.725 4.25598 21.3192 2.40758 20.7066L2.39089 16.28V15.8621L2.38672 15.0547L3.50494 15.1399L4.30605 15.1967L12.5926 15.8134C12.5926 15.8134 12.6051 16.069 12.6218 16.495C12.6259 16.633 12.6343 16.7831 12.6468 16.9495V17.0509C12.6468 17.0955 12.651 17.1402 12.651 17.1929C12.651 17.2254 12.6552 17.2619 12.6552 17.2943C12.6969 18.5197 12.7803 20.2765 12.8596 21.7209Z" fill="url(#paint2_linear_20897_355232)"/>
<path d="M22.0805 14.8468C22.0805 15.0902 21.9178 15.3296 21.6132 15.5609C21.609 15.5609 21.6006 15.565 21.5881 15.5731C21.5422 15.6055 21.4963 15.642 21.4421 15.6745C21.4379 15.6786 21.4296 15.6786 21.4254 15.6867C21.367 15.7191 21.3044 15.7597 21.2335 15.7962C21.1709 15.8287 21.1041 15.8652 21.0332 15.8977C20.5075 16.1533 19.7898 16.3805 18.9344 16.5793C18.8134 16.6077 18.6883 16.6361 18.5631 16.6604C18.5506 16.6645 18.5381 16.6726 18.5214 16.6726C18.4087 16.697 18.2919 16.7172 18.1709 16.7416C17.9789 16.7822 17.7745 16.8146 17.5659 16.8511C17.3572 16.8917 17.1361 16.9242 16.9108 16.9526C16.723 16.981 16.5311 17.0053 16.335 17.0256C16.2223 17.0418 16.118 17.054 16.0095 17.0662C15.6883 17.1067 15.367 17.1351 15.0415 17.1635C14.8788 17.1798 14.7077 17.1919 14.5408 17.2082C14.3239 17.2204 14.1027 17.2366 13.8774 17.2488C13.6104 17.265 13.335 17.2772 13.0554 17.2893C12.9261 17.2934 12.7926 17.3015 12.6591 17.3056C12.5881 17.3056 12.5172 17.3096 12.4504 17.3096C12.3336 17.3137 12.2168 17.3137 12.0999 17.3137C11.8538 17.3177 11.6034 17.3258 11.3531 17.3258C11.0902 17.3258 10.8357 17.3258 10.577 17.3218C10.431 17.3218 10.2849 17.3218 10.1389 17.3177C9.74667 17.3137 9.36698 17.3015 8.99563 17.2853C8.82039 17.2731 8.65349 17.269 8.48242 17.2569C7.97337 17.2285 7.48937 17.1879 7.01788 17.1433C6.90522 17.1311 6.80091 17.127 6.6966 17.1149C6.49215 17.0905 6.2877 17.0702 6.09577 17.0459C5.94973 17.0297 5.79952 17.0053 5.65766 16.9891C4.35585 16.8065 3.2418 16.5712 2.39479 16.2872C2.31134 16.2588 2.23206 16.2304 2.15696 16.202C2.09437 16.1776 2.02761 16.1573 1.96503 16.1289C1.79396 16.0681 1.64375 15.9991 1.51023 15.9261C0.92191 15.6299 0.592285 15.3012 0.592285 14.9482C0.592285 14.433 1.29743 13.9501 2.50745 13.5566C3.02066 13.3821 3.62149 13.2279 4.29743 13.09C6.18339 12.7167 8.6368 12.4814 11.328 12.4733C12.1625 12.4692 12.972 12.4854 13.7564 12.526C14.036 12.5382 14.303 12.5544 14.5742 12.5788C15.8176 12.6599 16.9609 12.7897 17.9623 12.9642C20.4616 13.3821 22.0721 14.0719 22.0805 14.8468Z" fill="#FADF52"/>
<path d="M11.324 17.2135C6.98462 17.2338 3.23357 16.6901 1.44775 15.8868C3.0917 16.7469 6.90534 17.3393 11.3448 17.3231C15.993 17.3028 19.9526 16.6171 21.4464 15.6758C19.7899 16.5643 15.8845 17.1973 11.324 17.2135Z" fill="#FFFF73"/>
<path d="M21.3299 14.8498C21.3341 15.998 16.8654 16.9474 11.3452 16.9718C5.82085 16.992 1.3438 16.0832 1.33545 14.935C1.33128 13.7867 5.79999 12.8373 11.3202 12.813C16.8445 12.7886 21.3216 13.7015 21.3299 14.8498Z" fill="url(#paint3_linear_20897_355232)"/>
<path d="M11.3243 13.251C16.4899 13.2307 20.7416 14.026 21.2715 15.0687C21.309 14.9957 21.3257 14.9227 21.3257 14.8496C21.3216 13.7014 16.8403 12.7925 11.3202 12.8128C5.8 12.8372 1.32712 13.7866 1.33546 14.9348C1.33546 15.0079 1.35632 15.0809 1.39388 15.1539C1.91543 14.1071 6.15883 13.2713 11.3243 13.251Z" fill="url(#paint4_linear_20897_355232)"/>
<path d="M24.0001 14.0241C24.0001 14.2675 23.8374 14.5109 23.5328 14.7382C23.2074 14.9816 22.715 15.2088 22.085 15.4117C21.9389 15.4644 21.7804 15.5091 21.6135 15.5577C21.6093 15.5577 21.601 15.5577 21.5884 15.5618C21.0502 15.716 20.4327 15.8499 19.7442 15.9716C19.2352 16.0609 18.6886 16.142 18.1086 16.211C17.4327 16.2921 16.715 16.357 15.9681 16.4057C15.5718 16.4341 15.167 16.4504 14.7539 16.4666C14.4452 16.4788 14.1281 16.4828 13.8068 16.4909C13.6274 16.495 13.4396 16.495 13.2519 16.495C13.0349 16.495 12.8221 16.495 12.6093 16.4909C9.13781 16.4625 6.11695 16.0609 4.29358 15.4523C3.99734 15.3549 3.72613 15.2494 3.49247 15.1358C3.34643 15.0668 3.21709 14.9938 3.10026 14.9248C2.82487 14.7503 2.63294 14.5637 2.54532 14.3689C2.50359 14.2837 2.48691 14.1985 2.48691 14.1133V13.5453L2.47439 10.6849L2.47021 10.3968V9.68677H2.97926L3.22543 9.68271H3.44657L11.9959 9.65025H12.1712L15.5509 9.63402L21.046 9.60968H21.7303L22.9946 9.60562H23.2157L23.4744 9.60156H23.9709L24.0001 14.0241Z" fill="url(#paint5_linear_20897_355232)"/>
<path d="M23.5329 14.7391C22.6733 15.3802 20.6956 15.9117 18.1087 16.216L17.8291 10.4059L21.7512 9.61065L23.4703 9.26172L23.4744 9.60254L23.5329 14.7391Z" fill="url(#paint6_linear_20897_355232)"/>
<path opacity="0.65" d="M14.7622 16.4709C14.274 16.4871 13.7733 16.4993 13.2643 16.4993C9.52994 16.5155 6.23787 16.0976 4.31019 15.4566L4.28516 9.80469L14.4868 10.5634C14.4827 10.5634 14.6204 13.9959 14.7622 16.4709Z" fill="url(#paint7_linear_20897_355232)"/>
<path d="M23.9795 9.60097C23.9836 10.9439 19.1769 12.0516 13.2437 12.0759C7.30628 12.1003 2.49126 11.0332 2.48291 9.69023C2.47874 8.34725 7.28542 7.2396 13.2187 7.21525C19.1561 7.19091 23.9711 8.25799 23.9795 9.60097Z" fill="#FADF52"/>
<path d="M13.2185 11.9674C8.87914 11.9877 5.1281 11.444 3.34229 10.6407C4.98624 11.5008 8.79987 12.0932 13.2394 12.077C17.8875 12.0567 21.8472 11.371 23.3409 10.4297C21.6886 11.3142 17.779 11.9471 13.2185 11.9674Z" fill="#FFFF73"/>
<path d="M23.2242 9.59962C23.2283 10.7478 18.7596 11.6973 13.2395 11.7216C7.71929 11.746 3.23806 10.8331 3.23389 9.68482C3.22972 8.5366 7.69843 7.58718 13.2186 7.56283C18.7388 7.54255 23.22 8.45139 23.2242 9.59962Z" fill="url(#paint8_linear_20897_355232)"/>
<path d="M13.2228 8.00103C18.3883 7.98074 22.64 8.77598 23.1699 9.81872C23.2075 9.74568 23.2242 9.67265 23.2242 9.59962C23.22 8.45139 18.7388 7.54255 13.2186 7.56283C7.69844 7.58718 3.22555 8.5366 3.2339 9.68482C3.2339 9.75786 3.25476 9.83089 3.29231 9.90392C3.8097 8.85712 8.05727 8.02537 13.2228 8.00103Z" fill="url(#paint9_linear_20897_355232)"/>
<path d="M21.5215 8.89287V9.06328C21.5215 9.24992 21.4214 9.43656 21.242 9.61508C21.2002 9.65971 21.1543 9.70028 21.1001 9.74491C21.0876 9.75709 21.0709 9.76926 21.0542 9.77737C20.4659 10.2156 19.3393 10.6051 17.8581 10.9013C17.1863 11.0392 16.4395 11.1569 15.6342 11.2542C15.2712 11.2989 14.904 11.3394 14.5201 11.3679C13.8066 11.4368 13.0556 11.4815 12.2795 11.5099C12.2044 11.5099 12.121 11.5139 12.0459 11.5139C11.6328 11.5301 11.2114 11.5383 10.7816 11.5383C9.98883 11.5423 9.21276 11.5261 8.46589 11.4936C7.20997 11.4368 6.03751 11.3273 4.99022 11.1812C4.83167 11.1569 4.68563 11.1366 4.5396 11.1122C4.45198 11.1001 4.36853 11.0838 4.28925 11.0717C3.62583 10.9581 3.02499 10.8323 2.49092 10.6903C2.4325 10.674 2.37409 10.6578 2.31567 10.6375C2.1446 10.5929 1.98188 10.5402 1.8275 10.4915C0.688413 10.1101 0.024991 9.65159 0.024991 9.15254L0.00830078 4.72598L0.759346 4.72192H0.980486L6.55072 4.69758L8.5243 4.69352L19.2601 4.64889L20.5243 4.64483H20.7454L21 4.63672H21.4965L21.5132 8.06517V8.45062L21.5215 8.89287Z" fill="url(#paint10_linear_20897_355232)"/>
<path d="M21.0543 9.77444C20.1948 10.4155 18.2171 10.947 15.6301 11.2513L15.3506 5.43714L19.2727 4.6419L20.9918 4.29297L21.0001 4.63784L21.0543 9.77444Z" fill="url(#paint11_linear_20897_355232)"/>
<path d="M21.4965 4.63613C21.5007 5.97911 16.694 7.08676 10.7608 7.1111C4.82337 7.13545 0.00834764 6.06837 2.71439e-06 4.72539C-0.00416975 3.38241 4.80251 2.27475 10.7358 2.25041C16.6732 2.22606 21.4924 3.29315 21.4965 4.63613Z" fill="#FADF52"/>
<path d="M10.74 7.00258C6.40063 7.02286 2.64958 6.47918 0.86377 5.67583C2.50772 6.53598 6.32135 7.12835 10.7609 7.11212C15.409 7.09184 19.3686 6.40615 20.8624 5.46484C19.2059 6.3534 15.3005 6.98635 10.74 7.00258Z" fill="#FFFF73"/>
<path d="M20.7457 4.63882C20.7498 5.78705 16.2811 6.73647 10.7609 6.76081C5.24077 6.78516 0.759546 5.87226 0.755374 4.72403C0.751202 3.5758 5.21991 2.62638 10.7401 2.60204C16.2603 2.57769 20.7415 3.4906 20.7457 4.63882Z" fill="url(#paint12_linear_20897_355232)"/>
<path d="M10.7399 3.04009C15.9054 3.0198 20.1571 3.81504 20.687 4.85778C20.7246 4.78475 20.7413 4.71171 20.7413 4.63868C20.7371 3.49045 16.2559 2.58161 10.7357 2.6019C5.21553 2.62624 0.742643 3.57566 0.750988 4.72389C0.750988 4.79692 0.77185 4.86995 0.809402 4.94298C1.33096 3.89619 5.57436 3.06038 10.7399 3.04009Z" fill="url(#paint13_linear_20897_355232)"/>
</g>
<defs>
<linearGradient id="paint0_linear_20897_355232" x1="0.585792" y1="18.2976" x2="22.1033" y2="18.2976" gradientUnits="userSpaceOnUse">
<stop stop-color="#EAA80C"/>
<stop offset="0.3459" stop-color="#FDCC06"/>
<stop offset="0.4836" stop-color="#FBC708"/>
<stop offset="0.6355" stop-color="#F5BA0D"/>
<stop offset="0.7943" stop-color="#EBA415"/>
<stop offset="1" stop-color="#D89B25"/>
</linearGradient>
<linearGradient id="paint1_linear_20897_355232" x1="15.9461" y1="17.9964" x2="21.6273" y2="17.9707" gradientUnits="userSpaceOnUse">
<stop offset="1e-08" stop-color="#F0AF11"/>
<stop offset="0.5074" stop-color="#FFDFB8"/>
<stop offset="1" stop-color="#DA9C24"/>
</linearGradient>
<linearGradient id="paint2_linear_20897_355232" x1="2.3828" y1="18.4003" x2="12.8615" y2="18.4003" gradientUnits="userSpaceOnUse">
<stop stop-color="#EEAF0B"/>
<stop offset="0.539154" stop-color="#BA7600"/>
<stop offset="0.9946" stop-color="#F7BF0B"/>
</linearGradient>
<linearGradient id="paint3_linear_20897_355232" x1="1.33651" y1="14.9344" x2="21.3287" y2="14.8439" gradientUnits="userSpaceOnUse">
<stop offset="0.00540541" stop-color="#F7AA0F"/>
<stop offset="0.1217" stop-color="#F8B40D"/>
<stop offset="0.432" stop-color="#FBCA09"/>
<stop offset="0.7301" stop-color="#FCD707"/>
<stop offset="1" stop-color="#FDDC06"/>
</linearGradient>
<linearGradient id="paint4_linear_20897_355232" x1="1.33236" y1="14.0046" x2="21.3245" y2="13.9141" gradientUnits="userSpaceOnUse">
<stop stop-color="#D87C25"/>
<stop offset="1" stop-color="#FDAF06"/>
</linearGradient>
<linearGradient id="paint5_linear_20897_355232" x1="2.48202" y1="13.0501" x2="23.9995" y2="13.0501" gradientUnits="userSpaceOnUse">
<stop stop-color="#EAA80C"/>
<stop offset="0.3459" stop-color="#FDCC06"/>
<stop offset="0.4836" stop-color="#FBC708"/>
<stop offset="0.6355" stop-color="#F5BA0D"/>
<stop offset="0.7943" stop-color="#EBA415"/>
<stop offset="1" stop-color="#D89B25"/>
</linearGradient>
<linearGradient id="paint6_linear_20897_355232" x1="17.8423" y1="12.7522" x2="23.5235" y2="12.7265" gradientUnits="userSpaceOnUse">
<stop offset="1e-08" stop-color="#F0AF11"/>
<stop offset="0.5074" stop-color="#FDDFBA"/>
<stop offset="1" stop-color="#DA9C24"/>
</linearGradient>
<linearGradient id="paint7_linear_20897_355232" x1="4.25553" y1="13.1261" x2="14.7453" y2="13.1269" gradientUnits="userSpaceOnUse">
<stop stop-color="#D2D2D2"/>
<stop offset="0.0001" stop-color="#EEAF0B"/>
<stop offset="0.374312" stop-color="#DC8222"/>
<stop offset="0.664976" stop-color="#DC8222"/>
<stop offset="0.9946" stop-color="#F6BB0D"/>
</linearGradient>
<linearGradient id="paint8_linear_20897_355232" x1="3.23269" y1="9.68646" x2="23.2249" y2="9.59599" gradientUnits="userSpaceOnUse">
<stop offset="0.00540541" stop-color="#F7AA0F"/>
<stop offset="0.1217" stop-color="#F8B40D"/>
<stop offset="0.432" stop-color="#FBCA09"/>
<stop offset="0.7301" stop-color="#FCD707"/>
<stop offset="1" stop-color="#FDDC06"/>
</linearGradient>
<linearGradient id="paint9_linear_20897_355232" x1="3.22849" y1="8.7568" x2="23.2207" y2="8.66633" gradientUnits="userSpaceOnUse">
<stop stop-color="#D87C25"/>
<stop offset="1" stop-color="#FDAF06"/>
</linearGradient>
<linearGradient id="paint10_linear_20897_355232" x1="0.00220898" y1="8.08765" x2="21.5197" y2="8.08765" gradientUnits="userSpaceOnUse">
<stop stop-color="#EAA80C"/>
<stop offset="0.3459" stop-color="#FDCC06"/>
<stop offset="0.4836" stop-color="#FBC708"/>
<stop offset="0.6355" stop-color="#F5BA0D"/>
<stop offset="0.7943" stop-color="#EBA415"/>
<stop offset="1" stop-color="#D89B25"/>
</linearGradient>
<linearGradient id="paint11_linear_20897_355232" x1="15.7305" y1="7.80888" x2="21.0438" y2="7.76313" gradientUnits="userSpaceOnUse">
<stop offset="1e-08" stop-color="#F0AF11"/>
<stop offset="0.5074" stop-color="#FFDBAD"/>
<stop offset="1" stop-color="#DA9C24"/>
</linearGradient>
<linearGradient id="paint12_linear_20897_355232" x1="0.752984" y1="4.72347" x2="20.7452" y2="4.63301" gradientUnits="userSpaceOnUse">
<stop offset="0.00540541" stop-color="#F7AA0F"/>
<stop offset="0.1217" stop-color="#F8B40D"/>
<stop offset="0.432" stop-color="#FBCA09"/>
<stop offset="0.7301" stop-color="#FCD707"/>
<stop offset="1" stop-color="#FDDC06"/>
</linearGradient>
<linearGradient id="paint13_linear_20897_355232" x1="0.748564" y1="3.79367" x2="20.7408" y2="3.70321" gradientUnits="userSpaceOnUse">
<stop stop-color="#D87C25"/>
<stop offset="1" stop-color="#FDAF06"/>
</linearGradient>
<clipPath id="clip0_20897_355232">
<rect width="24" height="24" fill="white"/>
</clipPath>
</defs>
</svg>
