<svg width="24" height="24" viewBox="0 0 24 24" fill="none" xmlns="http://www.w3.org/2000/svg">
<path d="M20.7747 20.9609H0.963616C0.791444 20.9609 0.651855 20.8213 0.651855 20.6492V9.5171C0.651855 9.34493 0.791444 9.20534 0.963616 9.20534H20.7747C20.9469 9.20534 21.0865 9.34493 21.0865 9.5171V20.6492C21.0865 20.8213 20.9469 20.9609 20.7747 20.9609Z" fill="#44BC58"/>
<path d="M19.4251 9.20534H9.51953V20.9609H19.4251C19.5972 20.9609 19.7368 20.8213 19.7368 20.6492V9.5171C19.7368 9.34493 19.5972 9.20534 19.4251 9.20534Z" fill="#2C9B39"/>
<path d="M20.0902 17.853V12.3069C18.9256 12.3069 17.9819 11.3628 17.9819 10.1986H3.75674C3.75674 11.3628 2.81261 12.3069 1.64844 12.3069V17.853C2.81261 17.853 3.75674 18.7968 3.75674 19.9609H17.9819C17.9819 18.7968 18.9256 17.853 20.0902 17.853Z" fill="#BFF4BA"/>
<path d="M17.9817 10.1986H10.8691V19.9609H17.9817C17.9817 18.7968 18.9254 17.853 20.09 17.853V12.3069C18.9254 12.3069 17.9817 11.3628 17.9817 10.1986Z" fill="#AAE5A3"/>
<path d="M5.35086 14.9936C5.35086 14.4984 4.94939 14.0969 4.4542 14.0969C3.9586 14.0969 3.55713 14.4984 3.55713 14.9936C3.55713 15.4892 3.9586 15.8906 4.4542 15.8906C4.94939 15.8906 5.35086 15.4892 5.35086 14.9936Z" fill="#44BC58"/>
<path d="M18.1813 14.9936C18.1813 14.4984 17.7795 14.0969 17.2843 14.0969C16.7891 14.0969 16.3872 14.4984 16.3872 14.9936C16.3872 15.4892 16.7891 15.8906 17.2843 15.8906C17.7795 15.8906 18.1813 15.4892 18.1813 14.9936Z" fill="#2C9B39"/>
<path d="M14.2871 15.0819C14.2871 13.1944 12.7568 11.6642 10.8694 11.6642C8.98151 11.6642 7.45166 13.1944 7.45166 15.0819C7.45166 16.9698 8.98151 18.5 10.8694 18.5C12.7568 18.5 14.2871 16.9698 14.2871 15.0819Z" fill="#44BC58"/>
<path d="M14.2868 15.0819C14.2868 13.1944 12.7566 11.6642 10.8691 11.6642V18.5C12.7566 18.5 14.2868 16.9698 14.2868 15.0819Z" fill="#2C9B39"/>
<path d="M11.3485 16.2304C11.4233 16.1459 11.4535 16.0458 11.4382 15.9299C11.4266 15.841 11.3843 15.767 11.3111 15.7087C11.2375 15.6503 11.1349 15.6004 11.0026 15.5586L11.0066 16.4215C11.1595 16.3788 11.2733 16.3153 11.3485 16.2304ZM10.235 14.5207C10.3062 14.5819 10.404 14.6358 10.5279 14.6829L10.5215 13.7464C10.3726 13.7882 10.2628 13.857 10.1916 13.9523C10.12 14.0477 10.093 14.1599 10.1095 14.289C10.122 14.3828 10.1634 14.46 10.235 14.5207ZM11.577 14.9878C11.7323 15.0489 11.8691 15.1423 11.9873 15.2674C12.1056 15.3921 12.1776 15.555 12.2038 15.7553C12.2444 16.0671 12.1567 16.339 11.9399 16.5711C11.7234 16.8032 11.4145 16.9613 11.013 17.0454L11.0187 17.7108C11.0183 17.7787 10.9929 17.8355 10.9422 17.8805C10.8911 17.9256 10.8304 17.9529 10.7592 17.9622C10.6924 17.9706 10.6353 17.959 10.5878 17.9268C10.5408 17.8942 10.517 17.8443 10.5174 17.7763L10.517 17.0969C10.186 17.0949 9.91482 17.0213 9.70363 16.8769C9.49204 16.7324 9.37136 16.5442 9.34078 16.3125C9.32067 16.1568 9.34521 16.0313 9.41399 15.9359C9.48319 15.841 9.5733 15.7863 9.68473 15.7718C9.79616 15.7569 9.88265 15.7775 9.94419 15.833C10.0057 15.8885 10.0564 15.9814 10.0962 16.1121C10.1232 16.2127 10.1731 16.2936 10.2467 16.3539C10.3203 16.4146 10.4124 16.4513 10.5227 16.4641L10.5255 15.4444C10.3103 15.3909 10.1244 15.3301 9.96833 15.2621C9.81225 15.1946 9.67668 15.0944 9.56203 14.962C9.44739 14.8297 9.37619 14.6567 9.34843 14.4431C9.30539 14.1133 9.39509 13.8296 9.61795 13.5923C9.84041 13.355 10.1417 13.1977 10.5211 13.1208L10.5142 12.4426C10.5098 12.375 10.5323 12.3203 10.581 12.2773C10.6297 12.235 10.6876 12.2093 10.7544 12.2004C10.8211 12.1916 10.8803 12.2033 10.9322 12.235C10.9837 12.2668 11.0094 12.3143 11.0086 12.3778L11.005 13.0782C11.2958 13.0854 11.5336 13.1542 11.7182 13.2842C11.9025 13.4141 12.0099 13.5927 12.0392 13.8196C12.0593 13.9712 12.0348 14.0887 11.9664 14.1724C11.898 14.2561 11.8059 14.3055 11.6905 14.3204C11.5967 14.3329 11.5163 14.314 11.4483 14.2637C11.3807 14.2138 11.3381 14.1402 11.3212 14.0429C11.2834 13.8574 11.178 13.7464 11.0058 13.7102L11.0002 14.8116C11.2295 14.8679 11.4217 14.9266 11.577 14.9878" fill="#BFF4BA"/>
<path d="M19.4249 20.9609H19.4185C19.4197 20.9577 19.4205 20.9549 19.4213 20.9517C19.4217 20.9509 19.4217 20.9505 19.4221 20.9497C19.4221 20.9489 19.4225 20.9481 19.4229 20.9473L19.7367 19.8491V20.6492C19.7367 20.8213 19.5971 20.9609 19.4249 20.9609" fill="#38AC49"/>
<path d="M10.8692 20.9609H0.963616C0.791444 20.9609 0.651855 20.8213 0.651855 20.6492V9.5171C0.651855 9.34493 0.791444 9.20534 0.963616 9.20534H2.87561H2.24606L1.67765 12.3097C1.66799 12.3101 1.65834 12.3101 1.64828 12.3101V12.4702L1.12453 15.3315C1.11648 15.3601 1.11246 15.3887 1.11246 15.4168C1.11246 15.5528 1.20176 15.6779 1.33893 15.7173L1.64828 15.8058V17.8562C2.81246 17.8562 3.75659 18.7999 3.75659 19.9641H10.8692V20.9609" fill="#44BC58"/>
<path d="M19.6845 20.9609H10.8691V19.9641H16.1976L19.6845 20.9609" fill="#38AC49"/>
<path d="M10.8693 19.9609H3.75674C3.75674 18.7968 2.81261 17.853 1.64844 17.853V15.8026L8.90342 17.8764C9.45936 18.2678 10.1376 18.4979 10.8693 18.4979V19.9609V19.9609ZM1.64844 12.467V12.3069C1.65849 12.3069 1.66815 12.3069 1.67781 12.3065L1.64844 12.467" fill="#81D889"/>
<path d="M16.1976 19.9609H10.8691V18.4979C10.9331 18.4979 10.9967 18.4959 11.0598 18.4926L16.1976 19.9609" fill="#77D07D"/>
<path d="M10.8692 18.5C10.1375 18.5 9.45926 18.2699 8.90332 17.8785L10.8692 18.4401V18.5Z" fill="#44BC58"/>
<path d="M10.8691 18.5V18.44L11.0601 18.4948C10.9968 18.498 10.9332 18.5 10.8691 18.5" fill="#38AC49"/>
<path d="M1.13374 9.20584L0.012207 15.332L4.29157 9.20584H1.13374Z" fill="#2BAA3D"/>
<path d="M19.2744 21.1598L0.226389 15.7154C0.0606527 15.6679 -0.0350833 15.4954 0.0119825 15.3296L3.07126 4.62677C3.11873 4.46103 3.29131 4.36489 3.45704 4.41236L22.505 9.85671C22.6708 9.90417 22.7665 10.0768 22.719 10.2425L19.6602 20.9453C19.6127 21.1111 19.4401 21.2072 19.2744 21.1598Z" fill="#44BC58"/>
<path d="M20.5814 17.9858L22.1057 12.6533C20.9865 12.3331 20.3385 11.1665 20.6583 10.047L6.98062 6.1377C6.66041 7.25722 5.49383 7.90528 4.37431 7.58507L2.8501 12.918C3.96962 13.2378 4.61768 14.4048 4.29788 15.5243L17.9755 19.4336C18.2953 18.3141 19.4623 17.666 20.5814 17.9858Z" fill="#BFF4BA"/>
<path d="M20.6585 10.047L13.8195 8.09233L11.1367 17.479L17.9757 19.4336C18.2956 18.3141 19.4625 17.666 20.5817 17.9858L22.1059 12.6533C20.9868 12.3331 20.3387 11.1665 20.6585 10.047Z" fill="#AAE5A3"/>
<path d="M7.1973 11.1854C7.33327 10.7091 7.05771 10.2123 6.58102 10.0763C6.10473 9.94032 5.60832 10.2159 5.47235 10.6922C5.33598 11.1685 5.61195 11.6649 6.08824 11.8012C6.56453 11.9372 7.06093 11.6616 7.1973 11.1854Z" fill="#44BC58"/>
<path d="M19.5336 14.7088C19.6695 14.2325 19.394 13.7357 18.9177 13.5997C18.4414 13.4638 17.945 13.7393 17.8086 14.2156C17.6727 14.6919 17.9482 15.1883 18.4245 15.3247C18.9008 15.4606 19.3972 15.1851 19.5336 14.7088Z" fill="#2C9B39"/>
<path d="M15.7644 13.7276C16.2834 11.9126 15.2326 10.0207 13.4176 9.50215C11.6025 8.98322 9.71066 10.034 9.19213 11.849C8.6732 13.6641 9.72393 15.5559 11.539 16.0745C13.354 16.5934 15.2455 15.5427 15.7644 13.7276Z" fill="#44BC58"/>
<path d="M15.7645 13.7276C16.2835 11.9126 15.2327 10.0207 13.4177 9.50215L11.5391 16.0745C13.3541 16.5934 15.2456 15.5427 15.7645 13.7276" fill="#2C9B39"/>
<path d="M12.6233 14.0239C12.7187 13.9635 12.775 13.8754 12.7923 13.76C12.8056 13.6711 12.785 13.5882 12.7303 13.5122C12.676 13.4357 12.5907 13.3597 12.4753 13.2833L12.242 14.1136C12.4009 14.1144 12.528 14.0846 12.6233 14.0239V14.0239ZM12.0227 12.0741C12.0742 12.1525 12.1535 12.2313 12.2597 12.3106L12.5107 11.4079C12.3562 11.4075 12.2315 11.4437 12.137 11.5157C12.042 11.5877 11.9849 11.6883 11.9656 11.817C11.9515 11.9103 11.9704 11.996 12.0227 12.0741V12.0741ZM13.1845 12.8919C13.3168 12.9937 13.4226 13.1208 13.5019 13.2732C13.5815 13.4261 13.6061 13.6023 13.5763 13.8022C13.5296 14.1132 13.3703 14.3505 13.0984 14.5142C12.8261 14.678 12.4857 14.7451 12.077 14.7154L11.8992 15.3566C11.8803 15.4218 11.8401 15.4692 11.779 15.4986C11.7178 15.528 11.6518 15.5376 11.5806 15.5272C11.5143 15.5171 11.4624 15.4898 11.4258 15.4459C11.3891 15.4017 11.3803 15.3473 11.3992 15.2818L11.5859 14.6285C11.2681 14.5356 11.0275 14.3903 10.8638 14.1932C10.7005 13.9965 10.6361 13.7821 10.6707 13.5512C10.6936 13.3959 10.7515 13.2817 10.8445 13.2093C10.937 13.1369 11.0388 13.1091 11.1498 13.1256C11.2608 13.1421 11.3385 13.1855 11.3823 13.2559C11.4266 13.3259 11.4495 13.4293 11.4519 13.5661C11.4499 13.6703 11.476 13.7616 11.5299 13.84C11.5838 13.9185 11.6623 13.9792 11.7653 14.0219L12.0481 13.0419C11.8558 12.9313 11.6937 12.8223 11.5621 12.7141C11.431 12.6055 11.3284 12.4723 11.2544 12.3134C11.1804 12.1549 11.1595 11.9691 11.1912 11.7555C11.2407 11.4268 11.4048 11.179 11.684 11.0117C11.9636 10.8447 12.2963 10.7763 12.6825 10.8069L12.8619 10.1524C12.8763 10.0864 12.913 10.0398 12.9717 10.0124C13.0304 9.98466 13.0928 9.97581 13.1595 9.98586C13.2263 9.99592 13.2798 10.0233 13.3209 10.0679C13.3619 10.1126 13.3732 10.1657 13.3551 10.2264L13.1591 10.8986C13.4367 10.9859 13.6467 11.1171 13.7883 11.2928C13.9299 11.4682 13.9838 11.6694 13.95 11.8959C13.9275 12.0471 13.8716 12.1533 13.7831 12.2153C13.6942 12.2768 13.5924 12.2989 13.4769 12.2816C13.3836 12.2675 13.3112 12.2273 13.2597 12.1605C13.2086 12.0942 13.1877 12.0113 13.1982 11.9127C13.2127 11.7245 13.1422 11.5889 12.9866 11.5065L12.678 12.564C12.8832 12.6811 13.0521 12.7905 13.1845 12.8919" fill="#BFF4BA"/>
<path d="M19.3605 21.1719C19.361 21.1719 19.3614 21.1719 19.3622 21.1719C19.3614 21.1719 19.361 21.1719 19.3605 21.1719ZM19.3601 21.1719C19.332 21.1719 19.303 21.1679 19.2745 21.1598C19.303 21.1679 19.332 21.1719 19.3601 21.1719ZM19.2745 21.1598L9.94738 18.494L9.75671 18.4392L0.226474 15.7155C0.0892997 15.676 0 15.5509 0 15.415C0 15.3868 0.00402272 15.3582 0.0120682 15.3297L3.07135 4.62682C3.11037 4.48965 3.23547 4.40035 3.37104 4.40035C3.3996 4.40035 3.42816 4.40437 3.45713 4.41242L22.5051 9.85676L12.9809 7.13459L12.707 8.0928L5.86834 6.13816C5.60365 7.06379 4.75968 7.6672 3.8425 7.6672C3.65062 7.6676 3.45592 7.64105 3.26203 7.58553L1.73782 12.9185C2.85734 13.2383 3.5054 14.4053 3.18559 15.5248L10.0242 17.4794L9.75027 18.4376L19.2745 21.1598V21.1598ZM19.6586 20.9498C19.659 20.949 19.659 20.9486 19.6594 20.9478C19.659 20.9486 19.659 20.949 19.6586 20.9498ZM19.6602 20.9454L22.7191 10.2425C22.7529 10.1247 22.7143 10.0036 22.6298 9.92636C22.6938 9.98469 22.7316 10.0688 22.7312 10.1569C22.7312 10.185 22.7276 10.214 22.7191 10.2425L19.6602 20.9454Z" fill="#39A44B"/>
<path d="M19.3608 21.1719C19.3604 21.1719 19.3604 21.1719 19.3604 21.1719C19.3322 21.1719 19.3033 21.1679 19.2747 21.1598L9.75049 18.4376L10.0244 17.4794L16.8635 19.4341C17.1282 18.5084 17.9721 17.9046 18.8893 17.9046C18.9432 17.9046 18.9975 17.907 19.0518 17.9111C19.0542 17.9115 19.0567 17.9115 19.0591 17.9119C19.0611 17.9119 19.0635 17.9119 19.0651 17.9123C19.1009 17.9151 19.1367 17.9191 19.1725 17.9239C19.1777 17.9247 19.1826 17.9255 19.1878 17.9263C19.1995 17.9279 19.2115 17.9296 19.2232 17.9316C19.2264 17.932 19.2296 17.9328 19.2333 17.9332C19.2349 17.9336 19.2365 17.934 19.2381 17.934C19.2662 17.9388 19.2944 17.944 19.3222 17.9501C19.3712 17.9601 19.4203 17.9726 19.4694 17.9863L20.9936 12.6538C20.714 12.5737 20.4634 12.441 20.2502 12.2688C19.619 11.7599 19.3141 10.9095 19.537 10.0804C19.5402 10.0696 19.543 10.0583 19.5462 10.0474L12.7072 8.0928L12.9811 7.13459L22.5053 9.85676C22.5532 9.87044 22.5954 9.89458 22.63 9.92636C22.7145 10.0036 22.7531 10.1247 22.7193 10.2425L19.6605 20.9454C19.6601 20.9462 19.6597 20.947 19.6597 20.9478C19.6593 20.9486 19.6593 20.949 19.6589 20.9498C19.6186 21.0838 19.4959 21.1711 19.3624 21.1719C19.3616 21.1719 19.3612 21.1719 19.3608 21.1719" fill="#33A542"/>
<path d="M16.8632 19.4336L10.0242 17.479L3.18557 15.5243C3.50538 14.4048 2.85732 13.2378 1.73779 12.918L3.262 7.58507C3.4559 7.64058 3.65059 7.66713 3.84248 7.66673C4.75966 7.66673 5.60362 7.06332 5.86832 6.1377L12.7069 8.09233L12.3051 9.49948C11.9913 9.40977 11.6751 9.36673 11.3642 9.36673C9.87656 9.36673 8.50844 10.3451 8.07961 11.8463C7.56068 13.6614 8.61142 15.5533 10.4265 16.0718L10.0242 17.479L16.8632 19.4336C17.1279 18.508 17.9719 17.9042 18.8891 17.9042C18.943 17.9042 18.9973 17.9066 19.0516 17.9106C18.9973 17.9066 18.943 17.9042 18.8891 17.9042C17.9719 17.9042 17.1279 18.508 16.8632 19.4336V19.4336ZM5.22187 10.0397C4.83126 10.0397 4.47243 10.2964 4.3598 10.6902C4.22343 11.1665 4.49939 11.6629 4.97568 11.7993C5.05815 11.8226 5.14101 11.8339 5.22267 11.8339C5.61288 11.8339 5.97211 11.5772 6.08474 11.1834C6.22071 10.7071 5.94516 10.2103 5.46847 10.0743C5.3864 10.051 5.30313 10.0397 5.22187 10.0397ZM19.3219 17.9496C19.2942 17.9436 19.266 17.9383 19.2378 17.9335C19.266 17.9383 19.2942 17.9436 19.3219 17.9496ZM19.233 17.9327C19.2294 17.9323 19.2262 17.9315 19.223 17.9311C19.2262 17.9315 19.2294 17.9323 19.233 17.9327ZM19.1876 17.9259C19.1823 17.9251 19.1775 17.9243 19.1723 17.9235C19.1775 17.9243 19.1823 17.9251 19.1876 17.9259ZM19.0649 17.9118C19.0632 17.9114 19.0608 17.9114 19.0588 17.9114C19.0608 17.9114 19.0632 17.9114 19.0649 17.9118ZM20.25 12.2683C19.6188 11.7594 19.3139 10.909 19.5367 10.08C19.3139 10.909 19.6188 11.7594 20.25 12.2683Z" fill="#9AE39C"/>
<path d="M16.8634 19.4336L10.0244 17.479L10.4267 16.0718C10.7405 16.1615 11.0566 16.2046 11.3676 16.2046C12.8548 16.2046 14.2229 15.2262 14.6521 13.725C14.7419 13.4112 14.7845 13.095 14.7845 12.7844C14.7849 11.2968 13.8066 9.9283 12.3053 9.49948L12.7072 8.09233L19.5462 10.047C19.543 10.0578 19.5402 10.0691 19.5369 10.08C19.3141 10.909 19.619 11.7595 20.2502 12.2683C20.4634 12.4405 20.714 12.5732 20.9936 12.6533L19.4694 17.9858C19.4203 17.9721 19.3712 17.9597 19.3221 17.9496C19.2944 17.9436 19.2662 17.9383 19.2381 17.9335C19.2364 17.9335 19.2348 17.9331 19.2332 17.9327C19.2296 17.9323 19.2264 17.9315 19.2232 17.9311C19.2115 17.9291 19.1994 17.9275 19.1878 17.9259C19.1825 17.9251 19.1777 17.9243 19.1725 17.9235C19.1367 17.9186 19.1009 17.9146 19.0651 17.9118C19.0635 17.9114 19.0611 17.9114 19.059 17.9114C19.0566 17.911 19.0542 17.911 19.0518 17.9106C18.9975 17.9066 18.9432 17.9042 18.8893 17.9042C17.9721 17.9042 17.1281 18.508 16.8634 19.4336V19.4336ZM17.5582 13.5657C17.168 13.5657 16.8087 13.8223 16.6961 14.2161C16.5601 14.6924 16.8357 15.1888 17.312 15.3252C17.3944 15.3485 17.4773 15.3598 17.559 15.3598C17.9492 15.3598 18.3084 15.1031 18.421 14.7093C18.557 14.233 18.2815 13.7362 17.8052 13.6002C17.7227 13.5769 17.6398 13.5657 17.5582 13.5657Z" fill="#8BD98C"/>
<path d="M6.33523 11.8359C6.25356 11.8359 6.1707 11.8247 6.08824 11.8013C5.61195 11.665 5.33598 11.1686 5.47235 10.6923C5.58499 10.2984 5.94382 10.0418 6.33442 10.0418C6.41568 10.0418 6.49896 10.0531 6.58102 10.0764C7.05771 10.2124 7.33327 10.7092 7.1973 11.1855C7.08466 11.5793 6.72543 11.8359 6.33523 11.8359Z" fill="#44BC58"/>
<path d="M18.6715 15.3594C18.5898 15.3594 18.507 15.3481 18.4245 15.3248C17.9482 15.1884 17.6727 14.692 17.8086 14.2157C17.9213 13.8219 18.2805 13.5652 18.6707 13.5652C18.7524 13.5652 18.8352 13.5765 18.9177 13.5998C19.394 13.7358 19.6695 14.2326 19.5336 14.7089C19.4209 15.1027 19.0617 15.3594 18.6715 15.3594Z" fill="#33A542"/>
<path d="M11.539 16.0742C9.72393 15.5557 8.6732 13.6638 9.19213 11.8488C9.62095 10.3475 10.9891 9.36914 12.4767 9.36914C12.7876 9.36914 13.1038 9.41219 13.4176 9.50189C14.9189 9.93072 15.8972 11.2992 15.8968 12.7868C15.8972 11.2992 14.9189 9.93072 13.4176 9.50189L13.2679 10.0248C13.2366 10.0055 13.2008 9.99266 13.1597 9.98663C13.142 9.98382 13.1247 9.98261 13.1074 9.98261C13.06 9.98261 13.0149 9.99266 12.9719 10.0132C12.9131 10.0405 12.8765 10.0872 12.8621 10.1532L12.6826 10.8077C12.6227 10.8028 12.5644 10.8004 12.5077 10.8004C12.1951 10.8004 11.9207 10.8712 11.6842 11.0124C11.405 11.1798 11.2409 11.4276 11.1914 11.7562C11.1596 11.9698 11.1806 12.1557 11.2546 12.3142C11.3286 12.4731 11.4312 12.6062 11.5623 12.7148C11.6939 12.823 11.856 12.9321 12.0483 13.0427L11.7655 14.0226C11.6625 13.98 11.584 13.9192 11.5301 13.8408C11.4762 13.7624 11.4501 13.671 11.4521 13.5669C11.4497 13.4301 11.4268 13.3267 11.3825 13.2567C11.3387 13.1863 11.261 13.1429 11.15 13.1264C11.1295 13.1231 11.109 13.1219 11.0888 13.1219C11.0011 13.1219 10.9199 13.1513 10.8447 13.21C10.7517 13.2824 10.6938 13.3967 10.6709 13.552C10.6363 13.7829 10.7006 13.9973 10.864 14.194C11.0277 14.3911 11.2683 14.5363 11.586 14.6293L11.3994 15.2825C11.3805 15.3481 11.3893 15.4024 11.4259 15.4467C11.4625 15.4905 11.5144 15.5179 11.5808 15.5279C11.5997 15.5307 11.6182 15.532 11.6363 15.532C11.6564 15.532 11.6762 15.5303 11.6955 15.5267L11.539 16.0742V16.0742ZM12.2599 12.3114C12.1537 12.2321 12.0744 12.1533 12.0229 12.0748C11.9706 11.9968 11.9517 11.9111 11.9658 11.8178C11.9851 11.689 12.0422 11.5885 12.1372 11.5165C12.2313 11.4445 12.3552 11.4087 12.5085 11.4087C12.5093 11.4087 12.5101 11.4087 12.5109 11.4087L12.2599 12.3114" fill="#44BC58"/>
<path d="M12.48 16.207C12.169 16.207 11.8528 16.164 11.5391 16.0743L11.6955 15.5268C11.7245 15.5216 11.7523 15.5127 11.7792 15.4994C11.8404 15.4701 11.8806 15.4226 11.8995 15.3574L12.0773 14.7162C12.1397 14.721 12.2004 14.723 12.2595 14.723C12.5882 14.723 12.8682 14.6539 13.0987 14.5151C13.3706 14.3513 13.5299 14.114 13.5766 13.803C13.6063 13.6031 13.5818 13.4269 13.5022 13.2741C13.4229 13.1216 13.3171 12.9945 13.1848 12.8927C13.0524 12.7913 12.8835 12.6819 12.6783 12.5649L12.9868 11.5073C13.1425 11.5897 13.2129 11.7253 13.1984 11.9136C13.188 12.0121 13.2089 12.095 13.26 12.1614C13.3115 12.2282 13.3839 12.2684 13.4772 12.2825C13.5021 12.2861 13.5271 12.2881 13.5508 12.2881C13.6365 12.2881 13.7141 12.264 13.7833 12.2161C13.8718 12.1541 13.9277 12.0479 13.9503 11.8967C13.9841 11.6702 13.9302 11.4691 13.7886 11.2937C13.647 11.1179 13.437 10.9867 13.1594 10.8995L13.3553 10.2273C13.3734 10.1665 13.3622 10.1134 13.3211 10.0688C13.3054 10.0515 13.2877 10.037 13.268 10.0249L13.4177 9.50196C14.919 9.93078 15.8973 11.2993 15.8969 12.7869C15.8969 13.0975 15.8542 13.4137 15.7645 13.7274C15.3353 15.2287 13.9672 16.207 12.48 16.207V16.207ZM12.2507 14.1144C12.2479 14.1144 12.245 14.1144 12.2422 14.1144L12.4755 13.2841C12.591 13.3605 12.6763 13.4366 12.7306 13.513C12.7853 13.589 12.8058 13.6719 12.7925 13.7608C12.7752 13.8763 12.7189 13.9644 12.6236 14.0247C12.5299 14.0846 12.4056 14.1144 12.2507 14.1144" fill="#33A542"/>
<path d="M11.6361 15.5312C11.618 15.5312 11.5995 15.53 11.5806 15.5272C11.5143 15.5172 11.4624 15.4898 11.4258 15.446C11.3891 15.4017 11.3803 15.3474 11.3992 15.2818L11.5859 14.6285C11.2681 14.5356 11.0275 14.3904 10.8638 14.1933C10.7005 13.9966 10.6361 13.7822 10.6707 13.5513C10.6936 13.396 10.7515 13.2817 10.8445 13.2093C10.9197 13.1506 11.001 13.1212 11.0887 13.1212C11.1088 13.1212 11.1293 13.1224 11.1498 13.1257C11.2608 13.1422 11.3385 13.1856 11.3823 13.256C11.4266 13.326 11.4495 13.4294 11.4519 13.5662C11.4499 13.6703 11.476 13.7617 11.5299 13.8401C11.5838 13.9185 11.6623 13.9793 11.7653 14.0219L12.0481 13.042C11.8558 12.9314 11.6937 12.8223 11.5621 12.7141C11.431 12.6055 11.3284 12.4724 11.2544 12.3135C11.1804 12.155 11.1595 11.9691 11.1912 11.7555C11.2407 11.4269 11.4048 11.1791 11.684 11.0117C11.9206 10.8705 12.1949 10.7997 12.5075 10.7997C12.5642 10.7997 12.6225 10.8021 12.6825 10.807L12.8619 10.1525C12.8763 10.0865 12.913 10.0398 12.9717 10.0125C13.0147 9.99196 13.0598 9.98191 13.1073 9.98191C13.1245 9.98191 13.1418 9.98311 13.1595 9.98593C13.2006 9.99196 13.2364 10.0048 13.2678 10.0241C13.2875 10.0362 13.3052 10.0507 13.3209 10.068C13.3619 10.1126 13.3732 10.1657 13.3551 10.2265L13.1591 10.8987C13.4367 10.986 13.6467 11.1171 13.7883 11.2929C13.9299 11.4683 13.9838 11.6694 13.95 11.8959C13.9275 12.0472 13.8716 12.1534 13.7831 12.2153C13.7139 12.2632 13.6362 12.2873 13.5506 12.2873C13.5268 12.2873 13.5019 12.2853 13.4769 12.2817C13.3836 12.2676 13.3112 12.2274 13.2597 12.1606C13.2086 12.0942 13.1877 12.0114 13.1982 11.9128C13.2127 11.7245 13.1422 11.589 12.9866 11.5065L12.678 12.5641C12.8832 12.6812 13.0521 12.7906 13.1845 12.8919C13.3168 12.9937 13.4226 13.1208 13.5019 13.2733C13.5815 13.4262 13.6061 13.6024 13.5763 13.8023C13.5296 14.1132 13.3703 14.3506 13.0984 14.5143C12.8679 14.6531 12.5879 14.7223 12.2593 14.7223C12.2001 14.7223 12.1394 14.7203 12.077 14.7154L11.8992 15.3567C11.8803 15.4218 11.8401 15.4693 11.779 15.4987C11.752 15.5119 11.7242 15.5208 11.6953 15.526C11.676 15.5296 11.6563 15.5312 11.6361 15.5312V15.5312ZM12.4753 13.2834L12.242 14.1136C12.2448 14.1136 12.2476 14.1136 12.2504 14.1136C12.4053 14.1136 12.5296 14.0839 12.6233 14.0239C12.7187 13.9636 12.775 13.8755 12.7923 13.76C12.8056 13.6711 12.785 13.5883 12.7303 13.5122C12.676 13.4358 12.5907 13.3598 12.4753 13.2834V13.2834ZM12.5083 11.408C12.355 11.408 12.2311 11.4438 12.137 11.5158C12.042 11.5878 11.9849 11.6883 11.9656 11.8171C11.9515 11.9104 11.9704 11.9961 12.0227 12.0741C12.0742 12.1526 12.1535 12.2314 12.2597 12.3107L12.5107 11.408C12.5099 11.408 12.5091 11.408 12.5083 11.408" fill="#9AE39C"/>
<path d="M21.1209 9.72228L3.87989 4.79444L1.01611 10.3474L13.042 14.3359L21.561 11.1041C21.4178 10.6101 21.2697 10.141 21.1209 9.72228" fill="#2BAA3D"/>
<path d="M17.6403 21.2459L0.822059 10.7763C0.675632 10.6854 0.630978 10.4931 0.721892 10.3467L6.60472 0.896542C6.69564 0.750115 6.88793 0.705461 7.03435 0.796375L23.853 11.2659C23.999 11.3568 24.044 11.5491 23.9527 11.6955L18.0699 21.1457C17.979 21.2921 17.7867 21.3368 17.6403 21.2459Z" fill="#44BC58"/>
<path d="M23.8528 11.2659L15.4432 6.03115L9.23096 16.0111L17.6401 21.2459C17.7865 21.3368 17.9788 21.2921 18.0697 21.1457L23.9525 11.6955C24.0438 11.5491 23.9988 11.3568 23.8528 11.2659" fill="#2C9B39"/>
<path d="M18.7 18.25L21.6309 13.5414C20.6425 12.9263 20.34 11.6261 20.9555 10.6378L8.8789 3.1201C8.26343 4.10848 6.96328 4.41099 5.9749 3.79591L3.04395 8.50451C4.03233 9.11959 4.33484 10.4197 3.71976 11.4081L15.7964 18.9258C16.4114 17.9374 17.7116 17.6349 18.7 18.25" fill="#BFF4BA"/>
<path d="M20.9555 10.6378L14.917 6.87893L9.75781 15.1669L15.7963 18.9258C16.4114 17.9374 17.7115 17.6349 18.6999 18.25L21.6309 13.5414C20.6425 12.9263 20.34 11.6261 20.9555 10.6378" fill="#AAE5A3"/>
<path d="M7.70018 8.03023C7.96165 7.60946 7.83293 7.05634 7.41255 6.79446C6.99218 6.53298 6.43905 6.66171 6.17717 7.08208C5.9153 7.50245 6.04402 8.05598 6.46439 8.31746C6.88517 8.57934 7.4383 8.45061 7.70018 8.03023" fill="#44BC58"/>
<path d="M18.592 14.8115C18.8539 14.3907 18.7251 13.8376 18.3047 13.5761C17.884 13.3142 17.3308 13.443 17.069 13.8633C16.8075 14.2841 16.9362 14.8372 17.3566 15.0987C17.7774 15.3606 18.3305 15.2319 18.592 14.8115" fill="#2C9B39"/>
<path d="M15.2389 12.8295C16.2365 11.2269 15.7458 9.11895 14.1435 8.12131C12.5409 7.12408 10.433 7.61445 9.43573 9.2167C8.4381 10.8193 8.92846 12.9273 10.5311 13.9249C12.1334 14.9221 14.2413 14.4318 15.2389 12.8295Z" fill="#44BC58"/>
<path d="M15.239 12.8295C16.2367 11.2269 15.7459 9.11895 14.1437 8.12131L10.5312 13.9249C12.1335 14.9221 14.2414 14.4318 15.239 12.8295Z" fill="#2C9B39"/>
<path d="M12.1372 12.2508C12.2454 12.2186 12.3239 12.1494 12.3722 12.0432C12.4096 11.9612 12.4124 11.8763 12.381 11.7878C12.3496 11.6997 12.2889 11.6027 12.1984 11.4977L11.7458 12.2319C11.8983 12.2765 12.0286 12.283 12.1372 12.2508ZM12.0954 10.2109C12.124 10.3002 12.1783 10.3979 12.2583 10.5033L12.7479 9.70442C12.5994 9.66177 12.4699 9.66177 12.3589 9.70522C12.2478 9.74826 12.1654 9.82952 12.1115 9.94779C12.0725 10.0339 12.0668 10.1216 12.0954 10.2109ZM12.988 11.3163C13.0874 11.4503 13.1542 11.6019 13.1884 11.7705C13.223 11.939 13.198 12.1152 13.1143 12.2995C12.984 12.5855 12.7656 12.7697 12.4594 12.8526C12.1525 12.9351 11.807 12.9061 11.422 12.7653L11.0748 13.3329C11.0386 13.3904 10.9871 13.425 10.9204 13.4367C10.8532 13.448 10.7872 13.4391 10.7216 13.4093C10.6605 13.3816 10.6182 13.341 10.5953 13.2887C10.572 13.2364 10.5784 13.1813 10.6146 13.1237L10.9735 12.5469C10.6935 12.3703 10.502 12.1647 10.399 11.9302C10.296 11.6957 10.2928 11.472 10.3898 11.2596C10.4545 11.1164 10.5418 11.0227 10.6504 10.9784C10.7594 10.9346 10.8652 10.9354 10.9674 10.982C11.0696 11.0283 11.1324 11.0914 11.1553 11.1711C11.1782 11.2507 11.1722 11.3565 11.1368 11.4885C11.1062 11.5883 11.1062 11.6828 11.1368 11.7733C11.1669 11.8638 11.2257 11.9435 11.3126 12.0126L11.854 11.1486C11.6992 10.9893 11.5736 10.8396 11.4771 10.6992C11.3806 10.5592 11.3186 10.4028 11.2912 10.2298C11.2635 10.0568 11.2945 9.87257 11.3838 9.67626C11.5213 9.37375 11.7474 9.18025 12.062 9.09658C12.3766 9.0125 12.7153 9.03825 13.0781 9.17382L13.4305 8.59374C13.4627 8.5342 13.5106 8.4996 13.5745 8.48915C13.6385 8.47869 13.7013 8.48754 13.7624 8.51529C13.824 8.54345 13.8682 8.58449 13.8952 8.6388C13.9225 8.6931 13.9189 8.747 13.8847 8.80051L13.5114 9.39306C13.7544 9.55316 13.9197 9.737 14.0078 9.94457C14.0959 10.1525 14.0927 10.3609 13.9977 10.5693C13.9346 10.7085 13.8517 10.7954 13.7495 10.83C13.6474 10.865 13.5428 10.8581 13.4366 10.8099C13.3509 10.7708 13.2926 10.7121 13.2612 10.6341C13.2302 10.5556 13.233 10.4707 13.27 10.379C13.336 10.2016 13.3054 10.052 13.1783 9.93009L12.5914 10.8622C12.7563 11.0311 12.8883 11.1824 12.988 11.3163Z" fill="#BFF4BA"/>
</svg>
